<svg width="100%" viewBox="0 0 680 320" xmlns="http://www.w3.org/2000/svg">
  <rect width="680" height="320" rx="16" fill="#0d1f2d"/>
  <circle cx="60" cy="40" r="3" fill="#f6c90e"/>
  <circle cx="620" cy="55" r="2" fill="#f6c90e"/>
  <circle cx="340" cy="20" r="2.5" fill="#f6c90e"/>
  <circle cx="500" cy="30" r="2" fill="#f6c90e"/>
  <circle cx="130" cy="70" r="1.5" fill="#f6c90e"/>
  <circle cx="80" cy="200" r="2" fill="#4ecdc4"/>
  <circle cx="630" cy="180" r="2.5" fill="#ff6b6b"/>
  <circle cx="300" cy="295" r="2" fill="#ffe66d"/>
  <circle cx="100" cy="155" r="52" fill="#1a3a4a"/>
  <circle cx="100" cy="155" r="48" fill="#0f2a38"/>
  <circle cx="100" cy="148" r="22" fill="#4ecdc4"/>
  <circle cx="92" cy="144" r="4" fill="#0d1f2d"/>
  <circle cx="108" cy="144" r="4" fill="#0d1f2d"/>
  <circle cx="93" cy="143" r="1.5" fill="white"/>
  <circle cx="109" cy="143" r="1.5" fill="white"/>
  <path d="M91 153 Q100 161 109 153" fill="none" stroke="#0d1f2d" stroke-width="2" stroke-linecap="round"/>
  <line x1="100" y1="126" x2="100" y2="112" stroke="#f6c90e" stroke-width="2"/>
  <circle cx="100" cy="109" r="4" fill="#f6c90e"/>
  <rect x="82" y="170" width="36" height="20" rx="8" fill="#4ecdc4"/>
  <rect x="175" y="48" width="340" height="52" rx="14" fill="#25d366"/>
  <text x="193" y="72" fill="white" font-family="Arial,sans-serif" font-size="13" font-weight="500">Dr. Meera, JIDA trial — 38% fewer caries.</text>
  <text x="193" y="90" fill="white" font-family="Arial,sans-serif" font-size="13" font-weight="500">Want me to draft the patient note?</text>
  <rect x="175" y="116" width="180" height="36" rx="14" fill="#1a3a4a"/>
  <text x="193" y="138" fill="white" font-family="Arial,sans-serif" font-size="13" font-weight="500">Yes please!</text>
  <rect x="175" y="168" width="360" height="52" rx="14" fill="#25d366"/>
  <text x="193" y="192" fill="white" font-family="Arial,sans-serif" font-size="13" font-weight="500">On it! Draft ready in 10 mins — take a look</text>
  <text x="193" y="210" fill="white" font-family="Arial,sans-serif" font-size="13" font-weight="500">and I'll push it live once you confirm.</text>
  <rect x="175" y="236" width="290" height="36" rx="14" fill="#25d366"/>
  <text x="193" y="258" fill="white" font-family="Arial,sans-serif" font-size="13" font-weight="500">Shukriya! Main abhi shuru karti hoon.</text>
  <text x="54" y="230" text-anchor="middle" fill="white" font-family="Arial,sans-serif" font-size="28" font-weight="500">vera</text>
  <text x="54" y="252" text-anchor="middle" fill="#4ecdc4" font-family="Arial,sans-serif" font-size="13">by jayesh</text>
  <text x="54" y="270" text-anchor="middle" fill="#8ab4bf" font-family="Arial,sans-serif" font-size="11">magicpin ai</text>
  <circle cx="176" cy="298" r="4" fill="#25d366" opacity="0.7"/>
  <circle cx="192" cy="298" r="4" fill="#4ecdc4" opacity="0.7"/>
  <circle cx="208" cy="298" r="4" fill="#f6c90e" opacity="0.7"/>
  <circle cx="224" cy="298" r="4" fill="#ff6b6b" opacity="0.7"/>
</svg>